# xmcd
#
# Track frame offsets: 
#        150
#        3471
#        20512
#        21821
#        33772
#        51699
#        80403
#        106203
#        128340
#        128985
#        163952
#        220661
#        222272
#        233704
#        252667
#        253990
#        269385
#        293003
#        314499
#
# Disc length: 4554 seconds
#
# Revision: 0
# Processed by: cddbd v1.5.2PL0 Copyright (c) Steve Scherf et al.
# Submitted via: ExactAudioCopy v0.99pb3
#
DISCID=1411c813
DTITLE=Cocker Joe  - Mad Dogs and Englishmen
DYEAR=1997
DGENRE=Blues
TTITLE0=Introduction
TTITLE1=Honky Tonk Woman
TTITLE2=Introduction
TTITLE3=Sticks And Stones
TTITLE4=Cry Me A River
TTITLE5=Bird On The Wire
TTITLE6=Feelin' Alright
TTITLE7=Superstar
TTITLE8=Introduction
TTITLE9=Let's Go Get Stoned
TTITLE10=Blue Medley
TTITLE11=Introduction
TTITLE12=Girl From The North Country
TTITLE13=Give Peace A Chance
TTITLE14=Introduction
TTITLE15=She Came Through The Bathroom Window
TTITLE16=Space Captain
TTITLE17=The Letter
TTITLE18=Delta Lady
EXTD=
EXTT0=
EXTT1=
EXTT2=
EXTT3=
EXTT4=
EXTT5=
EXTT6=
EXTT7=
EXTT8=
EXTT9=
EXTT10=
EXTT11=
EXTT12=
EXTT13=
EXTT14=
EXTT15=
EXTT16=
EXTT17=
EXTT18=
PLAYORDER=
